<svg width="70" height="83" viewBox="0 0 70 83" fill="none" xmlns="http://www.w3.org/2000/svg">
<path d="M62.9648 51.8611C65.8389 53.5205 65.5587 57.7562 62.4911 59.0226L36.1171 69.9101C34.9691 70.384 33.6662 70.2978 32.5908 69.6769L7.67902 55.2941C4.80494 53.6347 5.08512 49.3989 8.15271 48.1326L34.5268 37.2451C35.6747 36.7712 36.9776 36.8574 38.0531 37.4783L62.9648 51.8611Z" fill="#7F56D9"/>
<path d="M62.3209 27.1429C65.195 28.8022 64.9148 33.038 61.8472 34.3043L35.4731 45.1918C34.3252 45.6657 33.0223 45.5795 31.9468 44.9586L7.03509 30.5758C4.16102 28.9164 4.44119 24.6807 7.50879 23.4143L33.8829 12.5268C35.0308 12.0529 36.3337 12.1391 37.4092 12.7601L62.3209 27.1429Z" fill="#D6BBFB"/>
</svg>
