<svg width="40" height="40" viewBox="0 0 40 40" fill="none" xmlns="http://www.w3.org/2000/svg">
<path d="M36.6666 10.4166V18.9165C36.6666 21.0332 35.9667 22.8166 34.7167 24.0499C33.4833 25.2999 31.7 25.9999 29.5833 25.9999V29.0165C29.5833 30.1499 28.3166 30.8332 27.3833 30.1999L25.7667 29.1332C25.9167 28.6166 25.9833 28.0499 25.9833 27.4499V20.6666C25.9833 17.2666 23.7167 14.9999 20.3167 14.9999H8.99997C8.76664 14.9999 8.54998 15.0166 8.33331 15.0333V10.4166C8.33331 6.16659 11.1666 3.33325 15.4166 3.33325H29.5833C33.8333 3.33325 36.6666 6.16659 36.6666 10.4166Z" stroke="#7F56D9" stroke-width="3" stroke-miterlimit="10" stroke-linecap="round" stroke-linejoin="round"/>
<path d="M25.9833 20.6667V27.45C25.9833 28.05 25.9167 28.6166 25.7667 29.1333C25.15 31.5833 23.1166 33.1167 20.3166 33.1167H15.7833L10.75 36.4667C9.99997 36.9833 8.99997 36.4333 8.99997 35.5333V33.1167C7.29997 33.1167 5.88332 32.55 4.89998 31.5667C3.89998 30.5667 3.33331 29.15 3.33331 27.45V20.6667C3.33331 17.5 5.29998 15.3167 8.33331 15.0334C8.54998 15.0167 8.76664 15 8.99997 15H20.3166C23.7166 15 25.9833 17.2667 25.9833 20.6667Z" stroke="#7F56D9" stroke-width="3" stroke-miterlimit="10" stroke-linecap="round" stroke-linejoin="round"/>
</svg>
