<svg width="40" height="40" viewBox="0 0 40 40" fill="none" xmlns="http://www.w3.org/2000/svg">
<path d="M20 25C22.7614 25 25 22.7614 25 20C25 17.2386 22.7614 15 20 15C17.2386 15 15 17.2386 15 20C15 22.7614 17.2386 25 20 25Z" stroke="#7F56D9" stroke-width="3" stroke-miterlimit="10" stroke-linecap="round" stroke-linejoin="round"/>
<path d="M3.33337 21.4667V18.5334C3.33337 16.8001 4.75004 15.3667 6.50004 15.3667C9.51671 15.3667 10.75 13.2334 9.23337 10.6167C8.36671 9.11672 8.88337 7.16672 10.4 6.30006L13.2834 4.65006C14.6 3.86672 16.3 4.33339 17.0834 5.65006L17.2667 5.96672C18.7667 8.58339 21.2334 8.58339 22.75 5.96672L22.9334 5.65006C23.7167 4.33339 25.4167 3.86672 26.7334 4.65006L29.6167 6.30006C31.1334 7.16672 31.65 9.11672 30.7834 10.6167C29.2667 13.2334 30.5 15.3667 33.5167 15.3667C35.25 15.3667 36.6834 16.7834 36.6834 18.5334V21.4667C36.6834 23.2001 35.2667 24.6334 33.5167 24.6334C30.5 24.6334 29.2667 26.7667 30.7834 29.3834C31.65 30.9001 31.1334 32.8334 29.6167 33.7001L26.7334 35.3501C25.4167 36.1334 23.7167 35.6667 22.9334 34.3501L22.75 34.0334C21.25 31.4167 18.7834 31.4167 17.2667 34.0334L17.0834 34.3501C16.3 35.6667 14.6 36.1334 13.2834 35.3501L10.4 33.7001C8.88337 32.8334 8.36671 30.8834 9.23337 29.3834C10.75 26.7667 9.51671 24.6334 6.50004 24.6334C4.75004 24.6334 3.33337 23.2001 3.33337 21.4667Z" stroke="#7F56D9" stroke-width="3" stroke-miterlimit="10" stroke-linecap="round" stroke-linejoin="round"/>
</svg>
