<svg width="27" height="27" viewBox="0 0 27 27" fill="none" xmlns="http://www.w3.org/2000/svg">
<path d="M25.3379 13.2689C25.3379 19.9344 19.9344 25.3379 13.2689 25.3379M25.3379 13.2689C25.3379 6.60341 19.9344 1.19995 13.2689 1.19995M25.3379 13.2689H1.19995M13.2689 25.3379C6.60341 25.3379 1.19995 19.9344 1.19995 13.2689M13.2689 25.3379C16.2877 22.033 18.0033 17.744 18.0965 13.2689C18.0033 8.79379 16.2877 4.50486 13.2689 1.19995M13.2689 25.3379C10.2501 22.033 8.53456 17.744 8.44133 13.2689C8.53456 8.79379 10.2501 4.50486 13.2689 1.19995M1.19995 13.2689C1.19995 6.60341 6.60341 1.19995 13.2689 1.19995" stroke="#7F56D9" stroke-width="2.4" stroke-linecap="round" stroke-linejoin="round"/>
</svg>
